# xmcd
#
# Track frame offsets:
#	150
#	17231
#	36527
#	54659
#	72023
#	87934
#	107127
#	125599
#	142266
#	162131
#
# Disc length: 2445 seconds
#
# Revision: 1
# Processed by: cddbd v1.5.2PL0 Copyright (c) Steve Scherf et al.
# Submitted via: EZCDAudioConverter 7.1.5.1
#
DISCID=90098b0a
DTITLE=乌兰托娅 - 我在草原等你来
DYEAR=2011
DGENRE=
TTITLE0=我在草原等你来
TTITLE1=我的家乡内蒙古
TTITLE2=大高原
TTITLE3=心在云上飞
TTITLE4=月光下的毡房
TTITLE5=草原我的情人
TTITLE6=上马酒之歌
TTITLE7=我要飞
TTITLE8=蒙古新娘(赞新娘)
TTITLE9=飘泊
EXTD=
EXTT0=
EXTT1=
EXTT2=
EXTT3=
EXTT4=
EXTT5=
EXTT6=
EXTT7=
EXTT8=
EXTT9=
PLAYORDER=
